<svg width="153" height="29" viewBox="0 0 153 29" fill="none" xmlns="http://www.w3.org/2000/svg">
<path d="M43.9443 1.0088L40.4047 8.50709L32.4853 9.71338C31.0651 9.92859 30.4959 11.7579 31.5258 12.8056L37.2553 18.6388L35.9002 26.879C35.6563 28.3685 37.1578 29.4842 38.4153 28.7876L45.5 24.8969L52.5847 28.7876C53.8422 29.4785 55.3437 28.3685 55.0998 26.879L53.7447 18.6388L59.4742 12.8056C60.5041 11.7579 59.9349 9.92859 58.5147 9.71338L50.5953 8.50709L47.0557 1.0088C46.4215 -0.327757 44.5839 -0.344747 43.9443 1.0088Z" fill="#E59819"/>
<path d="M43.9443 1.0088L40.4047 8.50709L32.4853 9.71338C31.0651 9.92859 30.4959 11.7579 31.5258 12.8056L37.2553 18.6388L35.9002 26.879C35.6563 28.3685 37.1578 29.4842 38.4153 28.7876L45.5 24.8969L52.5847 28.7876C53.8422 29.4785 55.3437 28.3685 55.0998 26.879L53.7447 18.6388L59.4742 12.8056C60.5041 11.7579 59.9349 9.92859 58.5147 9.71338L50.5953 8.50709L47.0557 1.0088C46.4215 -0.327757 44.5839 -0.344747 43.9443 1.0088Z" fill="#E59819"/>
<path d="M74.9443 1.0088L71.4047 8.50709L63.4853 9.71338C62.0651 9.92859 61.4959 11.7579 62.5258 12.8056L68.2553 18.6388L66.9002 26.879C66.6563 28.3685 68.1578 29.4842 69.4153 28.7876L76.5 24.8969L83.5847 28.7876C84.8422 29.4785 86.3437 28.3685 86.0998 26.879L84.7447 18.6388L90.4742 12.8056C91.5041 11.7579 90.9349 9.92859 89.5147 9.71338L81.5953 8.50709L78.0557 1.0088C77.4215 -0.327757 75.5839 -0.344747 74.9443 1.0088Z" fill="#E59819"/>
<path d="M105.944 1.0088L102.405 8.50709L94.4853 9.71338C93.0651 9.92859 92.4959 11.7579 93.5258 12.8056L99.2553 18.6388L97.9002 26.879C97.6563 28.3685 99.1578 29.4842 100.415 28.7876L107.5 24.8969L114.585 28.7876C115.842 29.4785 117.344 28.3685 117.1 26.879L115.745 18.6388L121.474 12.8056C122.504 11.7579 121.935 9.92859 120.515 9.71338L112.595 8.50709L109.056 1.0088C108.421 -0.327757 106.584 -0.344747 105.944 1.0088Z" fill="#E59819"/>
<path d="M136.944 1.0088L133.405 8.50709L125.485 9.71338C124.065 9.92859 123.496 11.7579 124.526 12.8056L130.255 18.6388L128.9 26.879C128.656 28.3685 130.158 29.4842 131.415 28.7876L138.5 24.8969L145.585 28.7876C146.842 29.4785 148.344 28.3685 148.1 26.879L146.745 18.6388L152.474 12.8056C153.504 11.7579 152.935 9.92859 151.515 9.71338L143.595 8.50709L140.056 1.0088C139.421 -0.327757 137.584 -0.344747 136.944 1.0088Z" fill="#E59819"/>
<path d="M12.9443 1.0088L9.40468 8.50709L1.48526 9.71338C0.0650724 9.92859 -0.504086 11.7579 0.525819 12.8056L6.25534 18.6388L4.9002 26.879C4.65628 28.3685 6.15777 29.4842 7.41534 28.7876L14.5 24.8969L21.5847 28.7876C22.8422 29.4785 24.3437 28.3685 24.0998 26.879L22.7447 18.6388L28.4742 12.8056C29.5041 11.7579 28.9349 9.92859 27.5147 9.71338L19.5953 8.50709L16.0557 1.0088C15.4215 -0.327757 13.5839 -0.344747 12.9443 1.0088Z" fill="#E59819"/>
</svg>
