<svg width="48" height="48" viewBox="0 0 48 48" fill="none" xmlns="http://www.w3.org/2000/svg">
<path d="M45 25.5H41.4994C41.0004 26.539 40.4287 27.5415 39.7884 28.5H45V25.5ZM3 22.5V25.5H6.50062C6.03732 24.5311 5.64869 23.5281 5.33812 22.5H3Z" fill="#F5C825"/>
<path d="M28.4994 24.3543L23.6497 34.0537L19.1497 19.0537L15.9266 25.5H6.5C7.4375 27.4612 8.70313 29.3821 10.3091 31.2825C14.0703 35.7318 19.145 38.759 23.1528 41.4375L23.9966 42L24.8403 41.4375C28.8509 38.759 33.9256 35.7318 37.6841 31.2825C38.4382 30.3962 39.1406 29.4671 39.7878 28.5H30.5722L28.4994 24.3543Z" fill="#F5C825"/>
<path d="M19.8491 10.9463L24.3491 25.9463L28.4994 17.6456L32.4266 25.5H41.4988C42.849 22.7155 43.5339 19.6554 43.4994 16.5609C43.4404 10.7381 38.7688 6 33.0857 6C28.5754 6 25.5763 8.625 23.9994 10.5197C22.4226 8.625 19.4235 6 14.9132 6C9.23006 6 4.5585 10.7381 4.49944 16.5609C4.4756 18.5717 4.75822 20.5744 5.33756 22.5H14.0722L19.8491 10.9463Z" fill="#F5C825"/>
</svg>
