<svg width="48" height="48" viewBox="0 0 48 48" fill="none" xmlns="http://www.w3.org/2000/svg">
<path d="M10.286 28C8.78535 25.5425 7.99414 22.7175 8.00003 19.838C8.00003 11.09 15.164 4 24 4C32.836 4 40 11.09 40 19.838C40.0059 22.7175 39.2147 25.5425 37.714 28M30 38L29.74 39.294C29.46 40.708 29.318 41.414 29 41.974C28.51 42.8371 27.7166 43.4872 26.774 43.798C26.164 44 25.44 44 24 44C22.56 44 21.836 44 21.226 43.8C20.2831 43.4887 19.4897 42.8379 19 41.974C18.682 41.414 18.54 40.708 18.26 39.294L18 38M14.766 34.196C14.582 33.644 14.49 33.366 14.5 33.142C14.5113 32.9104 14.5895 32.687 14.7251 32.4989C14.8607 32.3108 15.0479 32.166 15.264 32.082C15.472 32 15.764 32 16.344 32H31.656C32.238 32 32.528 32 32.736 32.08C32.9525 32.1641 33.1399 32.3092 33.2755 32.4977C33.4111 32.6862 33.4891 32.91 33.5 33.142C33.51 33.366 33.418 33.642 33.234 34.196C32.894 35.218 32.724 35.73 32.462 36.144C31.914 37.0092 31.055 37.6313 30.062 37.882C29.586 38 29.05 38 27.976 38H20.024C18.95 38 18.412 38 17.938 37.88C16.9454 37.6298 16.0864 37.0085 15.538 36.144C15.276 35.73 15.106 35.218 14.766 34.196Z" stroke="#F5C825" stroke-width="1.5" stroke-linecap="round" stroke-linejoin="round"/>
<path d="M16.5 19.5L21 24V32M31.5 19.5L27 24V32M16.5 21C16.8978 21 17.2794 20.842 17.5607 20.5607C17.842 20.2794 18 19.8978 18 19.5C18 19.1022 17.842 18.7206 17.5607 18.4393C17.2794 18.158 16.8978 18 16.5 18C16.1022 18 15.7206 18.158 15.4393 18.4393C15.158 18.7206 15 19.1022 15 19.5C15 19.8978 15.158 20.2794 15.4393 20.5607C15.7206 20.842 16.1022 21 16.5 21ZM31.5 21C31.1022 21 30.7206 20.842 30.4393 20.5607C30.158 20.2794 30 19.8978 30 19.5C30 19.1022 30.158 18.7206 30.4393 18.4393C30.7206 18.158 31.1022 18 31.5 18C31.8978 18 32.2794 18.158 32.5607 18.4393C32.842 18.7206 33 19.1022 33 19.5C33 19.8978 32.842 20.2794 32.5607 20.5607C32.2794 20.842 31.8978 21 31.5 21Z" stroke="#F5C825" stroke-width="1.5" stroke-linecap="round" stroke-linejoin="round"/>
</svg>
