<svg width="40" height="41" viewBox="0 0 40 41" fill="none" xmlns="http://www.w3.org/2000/svg">
<rect y="0.5" width="40" height="40" rx="20" fill="white"/>
<path d="M20.0002 16.4532L18.6358 15.0566L18.6352 15.056C18.2873 14.7018 17.8723 14.4204 17.4144 14.2283C16.9566 14.0362 16.465 13.9372 15.9685 13.9372C15.472 13.9372 14.9804 14.0362 14.5225 14.2283C14.0647 14.4203 13.6497 14.7017 13.3019 15.0559C12.5879 15.7809 12.1877 16.7575 12.1877 17.775C12.1877 18.7926 12.588 19.7693 13.3021 20.4943L13.3024 20.4946L19.7774 27.0508L19.9997 27.276L20.2221 27.0508L26.6971 20.4946L26.6974 20.4943C27.4115 19.7693 27.8117 18.7926 27.8117 17.775C27.8117 16.7575 27.4116 15.7809 26.6976 15.0559C26.3499 14.7015 25.935 14.42 25.4771 14.2279C25.0193 14.0359 24.5278 13.9372 24.0314 13.9375C24.0312 13.9375 24.031 13.9375 24.0307 13.9375L24.031 14.25C23.5738 14.2493 23.1212 14.3409 22.7003 14.5192C22.2793 14.6974 21.8986 14.9587 21.581 15.2875L20.0002 16.4532ZM20.0002 16.4532L21.3563 15.0704C21.3565 15.0701 21.3568 15.0698 21.3571 15.0695L20.0002 16.4532ZM20.9154 14.62L20.9166 14.6188C21.3226 14.2047 21.8072 13.8759 22.3419 13.6516C22.8767 13.4273 23.4508 13.312 24.0307 13.3125L24.031 13L24.0309 13.3125C24.6108 13.3127 25.1849 13.4283 25.7196 13.6526C26.2544 13.8769 26.7391 14.2054 27.1456 14.619C27.9745 15.4628 28.4389 16.5984 28.4389 17.7813C28.4389 18.964 27.9746 20.0994 27.1458 20.9433C27.1457 20.9433 27.1456 20.9434 27.1456 20.9435L19.9997 28.1802L12.8539 20.9435C12.8538 20.9434 12.8537 20.9433 12.8536 20.9432C12.0249 20.0994 11.5605 18.964 11.5605 17.7813C11.5605 16.5984 12.025 15.4628 12.8539 14.619C13.2605 14.2057 13.7452 13.8774 14.2799 13.6533C14.8147 13.4292 15.3887 13.3138 15.9685 13.3138C16.5483 13.3138 17.1223 13.4292 17.6571 13.6533C18.1918 13.8774 18.6766 14.2058 19.0832 14.6191L19.084 14.62L19.7778 15.32L19.9997 15.5439L20.2217 15.32L20.9154 14.62Z" fill="#BDBDBD" stroke="#252B42" stroke-width="0.625"/>
</svg>
