<svg width="28" height="29" viewBox="0 0 28 29" fill="none" xmlns="http://www.w3.org/2000/svg">
<mask id="mask0_29_1465" style="mask-type:luminance" maskUnits="userSpaceOnUse" x="0" y="0" width="28" height="29">
<path d="M28 0.5H0V28.5H28V0.5Z" fill="white"/>
</mask>
<g mask="url(#mask0_29_1465)">
<path d="M20.8952 3.47789C20.8952 3.1862 20.6968 2.93194 20.4141 2.8612L20.0661 2.77411C19.7175 2.68683 19.3991 2.50635 19.1449 2.25196C18.8908 1.99757 18.7105 1.67884 18.6233 1.32984L18.5364 0.981775C18.4657 0.698633 18.2115 0.5 17.92 0.5C17.6287 0.5 17.3747 0.698277 17.3037 0.981081L17.2162 1.32984C17.1291 1.67872 16.9489 1.99737 16.695 2.25174C16.441 2.50612 16.1228 2.68667 15.7743 2.77411L15.4263 2.8612C15.1437 2.93194 14.9453 3.1862 14.9453 3.47789C14.9453 3.76957 15.1437 4.02383 15.4263 4.09457L15.7743 4.18166C16.123 4.26894 16.4414 4.44942 16.6955 4.70381C16.9497 4.9582 17.13 5.27693 17.2172 5.62593L17.3042 5.97428C17.3748 6.25725 17.6288 6.45577 17.9202 6.45577C18.2116 6.45577 18.4656 6.25725 18.5363 5.97428L18.6233 5.62593C18.7105 5.27693 18.8908 4.9582 19.1449 4.70381C19.3991 4.44942 19.7175 4.26894 20.0661 4.18166L20.4141 4.09457C20.6968 4.02383 20.8952 3.76957 20.8952 3.47789Z" fill="#FB923C"/>
<path d="M27.9997 9.24983C27.9997 8.84986 27.7275 8.50122 27.3395 8.40422L26.8618 8.2848C26.3832 8.16512 25.9462 7.91764 25.5974 7.56882C25.2486 7.22 25.0011 6.78295 24.8814 6.30439L24.762 5.82673C24.665 5.43871 24.3163 5.1665 23.9164 5.1665C23.5164 5.1665 23.1678 5.43871 23.0707 5.82673L22.9513 6.30439C22.8317 6.78295 22.5842 7.22 22.2354 7.56882C21.8865 7.91764 21.4495 8.16512 20.9709 8.2848L20.4933 8.40422C20.1052 8.50122 19.833 8.84986 19.833 9.24983C19.833 9.6498 20.1052 9.99844 20.4933 10.0954L20.9709 10.2149C21.4495 10.3345 21.8865 10.582 22.2354 10.9308C22.5842 11.2796 22.8317 11.7167 22.9513 12.1952L23.0707 12.6729C23.1678 13.0609 23.5164 13.3331 23.9164 13.3331C24.3163 13.3331 24.665 13.0609 24.762 12.6729L24.8814 12.1952C25.0011 11.7167 25.2486 11.2796 25.5974 10.9308C25.9462 10.582 26.3832 10.3345 26.8618 10.2149L27.3395 10.0954C27.7275 9.99844 27.9997 9.6498 27.9997 9.24983Z" fill="#FB923C"/>
<path d="M11.3321 5.76592C11.6474 4.9667 12.8528 4.9667 13.1682 5.76592L15.4429 11.7806C15.5421 12.0319 15.7533 12.8865 16.0213 12.9795L21.5272 15.4049C22.3794 15.7007 22.3794 16.8311 21.5272 17.1268L16.0213 18.9736C15.7533 19.0665 15.5421 19.9211 15.4429 20.1724L13.1682 25.5671C12.8528 26.3663 11.6474 26.3663 11.3321 25.5671L9.05736 20.1724C8.95821 19.9211 8.74696 19.0665 8.47901 18.9736L2.9722 17.1268C2.11995 16.8311 2.11995 15.7007 2.9722 15.4049L8.47901 12.9795C8.74696 12.8865 8.95821 12.0319 9.05736 11.7806L11.3321 5.76592Z" fill="#FB923C"/>
</g>
</svg>
