<svg width="48" height="48" viewBox="0 0 48 48" fill="none" xmlns="http://www.w3.org/2000/svg">
<path d="M34.5068 39.8336C38.2152 37.3768 40.944 33.6968 42.2178 29.4347C43.4915 25.1726 43.2295 20.5987 41.4772 16.5099C39.725 12.4212 36.5937 9.07694 32.6289 7.05983C28.6642 5.04271 24.1174 4.48066 19.7808 5.4716M34.5088 33.9996V39.8316L41.0008 39.8336M13.4448 8.1996C9.74712 10.6648 7.03057 14.3482 5.76768 18.6091C4.50479 22.87 4.77547 27.4388 6.53264 31.5208C8.28981 35.6028 11.4223 38.9397 15.3852 40.951C19.3481 42.9624 23.8907 43.521 28.2228 42.5296M13.4448 8.1996V13.9996M13.4448 8.1996H7.00081" stroke="#F5C825" stroke-width="1.5" stroke-linecap="round" stroke-linejoin="round"/>
<path d="M25 14L18 24H30L23 34" stroke="#F5C825" stroke-width="1.5" stroke-linecap="round" stroke-linejoin="round"/>
</svg>
